<svg id="Layer_1" data-name="Layer 1" xmlns="http://www.w3.org/2000/svg" viewBox="0 0 51 45"><title>alien3</title><rect x="5" y="22" width="5" height="5" fill="#15a6a9"/><rect x="5" y="27" width="5" height="5" fill="#15a6a9"/><rect x="5" y="31" width="5" height="5" fill="#15a6a9"/><rect x="5" y="36" width="5" height="5" fill="#15a6a9"/><rect y="36" width="5" height="5" fill="#15a6a9"/><rect y="40" width="5" height="5" fill="#15a6a9"/><rect x="19" y="31" width="5" height="5" fill="#15a6a9"/><rect x="23" y="31" width="5" height="5" fill="#15a6a9"/><rect x="28" y="31" width="5" height="5" fill="#15a6a9"/><rect x="14" y="27" width="5" height="5" fill="#15a6a9"/><rect x="19" y="27" width="5" height="5" fill="#15a6a9"/><rect x="28" y="27" width="5" height="5" fill="#15a6a9"/><rect x="32" y="27" width="5" height="5" fill="#15a6a9"/><rect x="9" y="22" width="5" height="5" fill="#15a6a9"/><rect x="9" y="36" width="5" height="5" fill="#15a6a9"/><rect x="9" y="40" width="5" height="5" fill="#15a6a9"/><rect x="41" y="22" width="5" height="5" fill="#15a6a9"/><rect x="41" y="27" width="5" height="5" fill="#15a6a9"/><rect x="41" y="31" width="5" height="5" fill="#15a6a9"/><rect x="41" y="36" width="5" height="5" fill="#15a6a9"/><rect x="37" y="36" width="5" height="5" fill="#15a6a9"/><rect x="46" y="36" width="5" height="5" fill="#15a6a9"/><rect x="37" y="40" width="5" height="5" fill="#15a6a9"/><rect x="46" y="40" width="5" height="5" fill="#15a6a9"/><rect x="14" y="22" width="5" height="5" fill="#15a6a9"/><rect x="32" y="22" width="5" height="5" fill="#15a6a9"/><rect x="37" y="22" width="5" height="5" fill="#15a6a9"/><rect x="9" y="18" width="5" height="5" fill="#15a6a9"/><rect x="14" y="18" width="5" height="5" fill="#15a6a9"/><rect x="19" y="18" width="5" height="5" fill="#15a6a9"/><rect x="23" y="18" width="5" height="5" fill="#15a6a9"/><rect x="28" y="18" width="5" height="5" fill="#15a6a9"/><rect x="32" y="18" width="5" height="5" fill="#15a6a9"/><rect x="37" y="18" width="5" height="5" fill="#15a6a9"/><rect x="9" y="13" width="5" height="5" fill="#15a6a9"/><rect x="19" y="13" width="5" height="5" fill="#15a6a9"/><rect x="23" y="13" width="5" height="5" fill="#15a6a9"/><rect x="28" y="13" width="5" height="5" fill="#15a6a9"/><rect x="37" y="13" width="5" height="5" fill="#15a6a9"/><rect x="9" y="9" width="5" height="5" fill="#15a6a9"/><rect x="14" y="9" width="5" height="5" fill="#15a6a9"/><rect x="19" y="9" width="5" height="5" fill="#15a6a9"/><rect x="23" y="9" width="5" height="5" fill="#15a6a9"/><rect x="28" y="9" width="5" height="5" fill="#15a6a9"/><rect x="32" y="9" width="5" height="5" fill="#15a6a9"/><rect x="37" y="9" width="5" height="5" fill="#15a6a9"/><rect x="14" y="4" width="5" height="5" fill="#15a6a9"/><rect x="19" y="4" width="5" height="5" fill="#15a6a9"/><rect x="23" y="4" width="5" height="5" fill="#15a6a9"/><rect x="28" y="4" width="5" height="5" fill="#15a6a9"/><rect x="19" width="5" height="5" fill="#15a6a9"/><rect x="28" width="5" height="5" fill="#15a6a9"/><rect x="32" y="4" width="5" height="5" fill="#15a6a9"/></svg>