<svg id="Layer_1" data-name="Layer 1" xmlns="http://www.w3.org/2000/svg" viewBox="0 0 50 53"><title>Ship3</title><g id="Ship"><rect id="flame" x="21" y="47" width="3" height="3" fill="#e73332"/><rect id="flame-2" data-name="flame" x="24" y="47" width="3" height="3" fill="#e73332"/><rect id="flame-3" data-name="flame" x="24" y="50" width="3" height="3" fill="#e73332"/><rect id="flame-4" data-name="flame" x="26" y="47" width="3" height="3" fill="#e73332"/><rect x="21" y="24" width="3" height="3" fill="#cdcccc"/><rect x="18" y="24" width="3" height="3" fill="#cdcccc"/><rect x="24" y="24" width="3" height="3" fill="#cdcccc"/><rect x="21" y="15" width="3" height="3" fill="#cdcccc"/><rect x="18" y="21" width="3" height="3" fill="#cdcccc"/><rect x="24" y="21" width="3" height="3" fill="#7a7878"/><rect x="18" y="18" width="3" height="3" fill="#cdcccc"/><rect x="18" y="15" width="3" height="3" fill="#7a7878"/><rect x="24" y="15" width="3" height="3" fill="#cdcccc"/><rect x="18" y="12" width="3" height="3" fill="#cdcccc"/><rect x="15" y="24" width="3" height="3" fill="#cdcccc"/><rect x="15" y="21" width="3" height="3" fill="#cdcccc"/><rect x="15" y="18" width="3" height="3" fill="#cdcccc"/><rect x="15" y="15" width="3" height="3" fill="#7a7878"/><rect x="15" y="12" width="3" height="3" fill="#cdcccc"/><rect x="12" y="24" width="3" height="3" fill="#7a7878"/><rect x="12" y="21" width="3" height="3" fill="#7a7878"/><rect x="12" y="18" width="3" height="3" fill="#7a7878"/><rect x="12" y="15" width="3" height="3" fill="#7a7878"/><rect x="12" y="12" width="3" height="3" fill="#cdcccc"/><rect x="21" y="6" width="3" height="3" fill="#cdcccc"/><rect x="21" y="3" width="3" height="3" fill="#cdcccc"/><rect x="18" y="6" width="3" height="3" fill="#cdcccc"/><rect x="24" y="6" width="3" height="3" fill="#cdcccc"/><rect x="24" y="3" width="3" height="3" fill="#cdcccc"/><rect x="24" width="3" height="3" fill="#355faa"/><rect x="26" y="3" width="3" height="3" fill="#cdcccc"/><rect x="26" y="24" width="3" height="3" fill="#cdcccc"/><rect x="24" y="18" width="3" height="3" fill="#cdcccc"/><rect x="26" y="15" width="3" height="3" fill="#cdcccc"/><rect x="26" y="6" width="3" height="3" fill="#cdcccc"/><rect x="29" y="24" width="3" height="3" fill="#cdcccc"/><rect x="29" y="18" width="3" height="3" fill="#cdcccc"/><rect x="29" y="15" width="3" height="3" fill="#7a7878"/><rect x="29" y="12" width="3" height="3" fill="#cdcccc"/><rect x="29" y="6" width="3" height="3" fill="#cdcccc"/><rect x="29" y="21" width="3" height="3" fill="#cdcccc"/><rect x="32" y="24" width="3" height="3" fill="#cdcccc"/><rect x="32" y="18" width="3" height="3" fill="#cdcccc"/><rect x="32" y="15" width="3" height="3" fill="#7a7878"/><rect x="32" y="12" width="3" height="3" fill="#cdcccc"/><rect x="32" y="21" width="3" height="3" fill="#cdcccc"/><rect x="35" y="24" width="3" height="3" fill="#7a7878"/><rect x="21" y="26" width="3" height="3" fill="#7a7878"/><rect x="18" y="26" width="3" height="3" fill="#7a7878"/><rect x="24" y="26" width="3" height="3" fill="#7a7878"/><rect x="15" y="26" width="3" height="3" fill="#cdcccc"/><rect x="12" y="26" width="3" height="3" fill="#7a7878"/><rect x="26" y="26" width="3" height="3" fill="#7a7878"/><rect x="29" y="26" width="3" height="3" fill="#7a7878"/><rect x="32" y="26" width="3" height="3" fill="#cdcccc"/><rect x="35" y="26" width="3" height="3" fill="#7a7878"/><rect x="18" y="29" width="3" height="3" fill="#cdcccc"/><rect x="21" y="29" width="3" height="3" fill="#cdcccc"/><rect x="24" y="29" width="3" height="3" fill="#cdcccc"/><rect x="15" y="29" width="3" height="3" fill="#cdcccc"/><rect x="12" y="29" width="3" height="3" fill="#7a7878"/><rect x="26" y="29" width="3" height="3" fill="#cdcccc"/><rect x="29" y="29" width="3" height="3" fill="#cdcccc"/><rect x="32" y="29" width="3" height="3" fill="#cdcccc"/><rect x="35" y="29" width="3" height="3" fill="#7a7878"/><rect x="21" y="32" width="3" height="3" fill="#7a7878"/><rect x="18" y="32" width="3" height="3" fill="#cdcccc"/><rect x="24" y="32" width="3" height="3" fill="#7a7878"/><rect x="15" y="32" width="3" height="3" fill="#cdcccc"/><rect x="12" y="32" width="3" height="3" fill="#7a7878"/><rect x="26" y="32" width="3" height="3" fill="#7a7878"/><rect x="29" y="32" width="3" height="3" fill="#cdcccc"/><rect x="32" y="32" width="3" height="3" fill="#cdcccc"/><rect x="35" y="32" width="3" height="3" fill="#7a7878"/><rect x="21" y="35" width="3" height="3" fill="#cdcccc"/><rect x="18" y="35" width="3" height="3" fill="#cdcccc"/><rect x="24" y="35" width="3" height="3" fill="#cdcccc"/><rect x="15" y="35" width="3" height="3" fill="#cdcccc"/><rect x="12" y="35" width="3" height="3" fill="#7a7878"/><rect x="26" y="35" width="3" height="3" fill="#cdcccc"/><rect x="29" y="35" width="3" height="3" fill="#cdcccc"/><rect x="32" y="35" width="3" height="3" fill="#cdcccc"/><rect x="35" y="35" width="3" height="3" fill="#7a7878"/><rect x="21" y="38" width="3" height="3" fill="#cdcccc"/><rect x="18" y="38" width="3" height="3" fill="#cdcccc"/><rect x="15" y="38" width="3" height="3" fill="#cdcccc"/><rect x="12" y="38" width="3" height="3" fill="#7a7878"/><rect x="26" y="38" width="3" height="3" fill="#cdcccc"/><rect x="29" y="38" width="3" height="3" fill="#cdcccc"/><rect x="32" y="38" width="3" height="3" fill="#cdcccc"/><rect x="35" y="38" width="3" height="3" fill="#7a7878"/><rect x="38" y="35" width="3" height="3" fill="#7a7878"/><rect x="38" y="38" width="3" height="3" fill="#7a7878"/><rect x="21" y="41" width="3" height="3" fill="#cdcccc"/><rect x="18" y="41" width="3" height="3" fill="#cdcccc"/><rect x="24" y="41" width="3" height="3" fill="#cdcccc"/><rect x="15" y="41" width="3" height="3" fill="#cdcccc"/><rect x="12" y="41" width="3" height="3" fill="#7a7878"/><rect x="9" y="35" width="3" height="3" fill="#7a7878"/><rect x="9" y="38" width="3" height="3" fill="#7a7878"/><rect x="6" y="24" width="3" height="3" fill="#cdcccc"/><rect x="6" y="21" width="3" height="3" fill="#355faa"/><rect x="6" y="26" width="3" height="3" fill="#cdcccc"/><rect x="6" y="29" width="3" height="3" fill="#cdcccc"/><rect x="6" y="32" width="3" height="3" fill="#cdcccc"/><rect x="6" y="35" width="3" height="3" fill="#cdcccc"/><rect x="6" y="38" width="3" height="3" fill="#cdcccc"/><rect x="6" y="41" width="3" height="3" fill="#cdcccc"/><rect x="3" y="24" width="3" height="3" fill="#cdcccc"/><rect x="3" y="26" width="3" height="3" fill="#cdcccc"/><rect x="3" y="29" width="3" height="3" fill="#cdcccc"/><rect x="3" y="32" width="3" height="3" fill="#cdcccc"/><rect x="3" y="35" width="3" height="3" fill="#cdcccc"/><rect x="3" y="38" width="3" height="3" fill="#cdcccc"/><rect x="3" y="41" width="3" height="3" fill="#cdcccc"/><rect y="29" width="3" height="3" fill="#a6a0a0"/><rect y="32" width="3" height="3" fill="#a6a0a0"/><rect y="35" width="3" height="3" fill="#a6a0a0"/><rect y="38" width="3" height="3" fill="#a6a0a0"/><rect x="26" y="41" width="3" height="3" fill="#cdcccc"/><rect x="29" y="41" width="3" height="3" fill="#cdcccc"/><rect x="32" y="41" width="3" height="3" fill="#cdcccc"/><rect x="41" y="24" width="3" height="3" fill="#cdcccc"/><rect x="41" y="21" width="3" height="3" fill="#355faa"/><rect x="41" y="26" width="3" height="3" fill="#cdcccc"/><rect x="41" y="29" width="3" height="3" fill="#cdcccc"/><rect x="41" y="32" width="3" height="3" fill="#cdcccc"/><rect x="41" y="35" width="3" height="3" fill="#cdcccc"/><rect x="41" y="38" width="3" height="3" fill="#cdcccc"/><rect x="41" y="41" width="3" height="3" fill="#cdcccc"/><rect x="44" y="24" width="3" height="3" fill="#cdcccc"/><rect x="44" y="26" width="3" height="3" fill="#cdcccc"/><rect x="44" y="29" width="3" height="3" fill="#cdcccc"/><rect x="44" y="32" width="3" height="3" fill="#cdcccc"/><rect x="44" y="35" width="3" height="3" fill="#cdcccc"/><rect x="44" y="38" width="3" height="3" fill="#cdcccc"/><rect x="44" y="41" width="3" height="3" fill="#cdcccc"/><rect x="47" y="29" width="3" height="3" fill="#a6a0a0"/><rect x="47" y="32" width="3" height="3" fill="#a6a0a0"/><rect x="47" y="35" width="3" height="3" fill="#a6a0a0"/><rect x="47" y="38" width="3" height="3" fill="#a6a0a0"/><rect x="21" y="9" width="3" height="3" fill="#cdcccc"/><rect x="18" y="9" width="3" height="3" fill="#cdcccc"/><rect x="24" y="9" width="3" height="3" fill="#cdcccc"/><rect x="15" y="9" width="3" height="3" fill="#cdcccc"/><rect x="26" y="9" width="3" height="3" fill="#cdcccc"/><rect x="29" y="9" width="3" height="3" fill="#cdcccc"/><rect x="21" y="44" width="3" height="3" fill="#cdcccc"/><rect x="18" y="44" width="3" height="3" fill="#cdcccc"/><rect x="24" y="44" width="3" height="3" fill="#cdcccc"/><rect x="26" y="44" width="3" height="3" fill="#cdcccc"/><rect x="29" y="44" width="3" height="3" fill="#cdcccc"/><rect x="32" y="9" width="3" height="3" fill="#cdcccc"/><rect x="35" y="41" width="3" height="3" fill="#7a7878"/><rect x="35" y="18" width="3" height="3" fill="#7a7878"/><rect x="35" y="15" width="3" height="3" fill="#7a7878"/><rect x="35" y="12" width="3" height="3" fill="#cdcccc"/><rect x="35" y="21" width="3" height="3" fill="#7a7878"/><rect x="21" y="21" width="3" height="3" fill="#cdcccc"/><rect x="21" y="18" width="3" height="3" fill="#7a7878"/><rect x="26" y="18" width="3" height="3" fill="#7a7878"/><rect x="26" y="21" width="3" height="3" fill="#cdcccc"/><rect x="24" y="38" width="3" height="3" fill="#7a7878"/></g></svg>